<svg width="3147" height="1064" viewBox="0 0 3147 1064" fill="none" xmlns="http://www.w3.org/2000/svg">
<path d="M1043.9 624.8H1151V685H979.15V431.25H1043.9V624.8ZM1207.58 487.25C1186.58 487.25 1171.88 472.9 1171.88 452.6C1171.88 432.3 1186.93 417.25 1207.58 417.25C1228.23 417.25 1242.93 431.6 1242.93 452.6C1242.93 472.2 1228.23 487.25 1207.58 487.25ZM1176.43 685V507.2H1238.73V685H1176.43ZM1275.4 685V507.2H1335.6V534.85C1347.5 514.55 1367.1 503.35 1390.9 503.35C1431.15 503.35 1456.35 530.65 1456.35 574.4V685H1394.05V590.15C1394.05 570.9 1385.3 561.1 1367.8 561.1C1349.6 561.1 1337.7 573.7 1337.7 592.95V685H1275.4ZM1681.31 685H1613.06L1582.26 627.6L1542.01 685H1490.91V425.3H1553.21V565.3L1550.76 593.3L1563.71 565.65L1601.86 507.2H1671.16L1616.56 581.75L1681.31 685Z" fill="#06295F"/>
<path d="M398.824 701.627C378.306 701.127 359.208 692.66 345.056 677.789C330.9 662.921 323.378 643.427 323.878 622.893C324.378 602.359 332.837 583.254 347.7 569.093L427.803 492.753C458.487 463.515 507.22 464.703 536.436 495.4C543.732 503.065 543.437 515.196 535.776 522.493C528.122 529.79 515.991 529.495 508.702 521.833C494.053 506.444 469.613 505.844 454.221 520.506L374.122 596.843C358.737 611.508 358.141 635.958 372.794 651.355C379.892 658.813 389.468 663.056 399.757 663.307C410.047 663.558 419.818 659.785 427.271 652.683L466.957 614.87C474.622 607.569 486.742 607.868 494.035 615.529C501.328 623.191 501.036 635.322 493.375 642.619L453.688 680.436C438.825 694.6 419.342 702.127 398.824 701.627Z" fill="#052A5F"/>
<path d="M513.646 591.392C493.128 590.892 474.03 582.459 459.873 567.65C452.575 560.021 452.87 547.942 460.53 540.673C468.19 533.412 480.314 533.707 487.607 541.337C494.706 548.763 504.286 552.989 514.571 553.24C524.857 553.49 534.631 549.735 542.08 542.664L622.177 466.663C629.629 459.592 633.869 450.052 634.119 439.801C634.369 429.549 630.598 419.815 623.499 412.388C608.845 397.059 584.402 396.464 569.019 411.061L529.341 448.712C521.688 455.977 509.561 455.681 502.264 448.052C494.966 440.419 495.261 428.34 502.921 421.075L542.607 383.421C573.279 354.312 622.015 355.499 651.234 386.067C665.391 400.876 672.914 420.288 672.416 440.734C671.918 461.179 663.458 480.202 648.597 494.304L568.503 570.301C553.646 584.399 534.163 591.891 513.646 591.392Z" fill="#10C2FB"/>
<path d="M793.94 867.583H616L676.078 540.085L711.003 506.947C736.778 482.489 751.45 449.498 752.314 414.038C753.168 378.991 740.431 345.697 716.429 320.129L743.236 174H921.177L793.94 867.583Z" fill="#10C0FA"/>
<path d="M317.905 537.186L296.329 557.749C272.444 580.505 258.852 611.206 258.048 644.203C257.346 673.027 266.482 700.577 283.967 723.01L283.597 725.037H285.582C287.641 727.568 289.806 730.032 292.08 732.42C314.822 756.318 345.512 769.924 378.483 770.728C411.455 771.531 442.765 759.435 466.65 736.673L478.861 725.037H576.337L546.68 889.583H76L203.236 196H380.22L317.905 537.186Z" fill="#062A5E"/>
<path d="M1743.64 685V431.25H1808.74V685H1743.64ZM1848.3 685V507.2H1908.5V534.85C1920.4 514.55 1940 503.35 1963.8 503.35C2004.05 503.35 2029.25 530.65 2029.25 574.4V685H1966.95V590.15C1966.95 570.9 1958.2 561.1 1940.7 561.1C1922.5 561.1 1910.6 573.7 1910.6 592.95V685H1848.3ZM2126.17 688.85C2059.32 688.85 2051.27 641.6 2051.27 641.6L2103.77 627.25C2103.77 627.25 2107.27 646.5 2125.47 646.5C2135.62 646.5 2141.92 641.95 2141.92 633.9C2141.92 624.8 2135.27 620.6 2121.62 617.8L2107.97 614.3C2074.02 606.95 2053.02 588.05 2053.02 560.05C2053.02 525.4 2081.72 503.35 2126.87 503.35C2189.17 503.35 2200.37 543.95 2200.37 543.95L2147.87 561.1C2147.87 561.1 2144.37 545.7 2127.92 545.7C2119.17 545.7 2113.92 549.55 2113.92 556.55C2113.92 564.95 2121.27 568.8 2135.97 572.3L2151.72 576.15C2183.57 583.5 2204.22 602.75 2204.22 630.05C2204.22 666.1 2173.77 688.85 2126.17 688.85ZM2258.18 487.25C2237.18 487.25 2222.48 472.9 2222.48 452.6C2222.48 432.3 2237.53 417.25 2258.18 417.25C2278.83 417.25 2293.53 431.6 2293.53 452.6C2293.53 472.2 2278.83 487.25 2258.18 487.25ZM2227.03 685V507.2H2289.33V685H2227.03ZM2448.12 507.2H2508.67V682.9C2508.67 732.6 2473.32 762.7 2416.97 762.7C2369.72 762.7 2335.42 738.55 2327.72 700.05L2387.92 692.7C2390.37 705.3 2401.22 713 2416.62 713C2436.92 713 2448.12 702.5 2448.12 682.9V654.9C2437.62 671 2420.82 680.8 2396.67 680.8C2349.42 680.8 2318.62 645.8 2318.27 591.9C2318.27 539.05 2350.12 503.35 2398.07 503.35C2421.17 503.35 2437.62 513.15 2448.12 529.6V507.2ZM2413.47 626.55C2433.77 626.55 2447.77 612.9 2447.77 591.9C2447.77 571.6 2434.12 557.6 2413.82 557.6C2393.52 557.6 2381.97 571.6 2381.97 591.9C2381.97 612.9 2393.17 626.55 2413.47 626.55ZM2546.3 685V425.3H2608.6V531.7C2620.15 513.15 2639.05 503.35 2662.15 503.35C2702.05 503.35 2727.95 530.65 2727.95 574.4V685H2665.65V590.15C2665.65 570.9 2656.2 561.1 2639.05 561.1C2620.85 561.1 2608.6 573.7 2608.6 592.95V685H2546.3ZM2885.48 625.15L2904.38 677.65C2904.38 677.65 2883.38 688.85 2849.43 688.85C2798.33 688.85 2773.48 665.05 2773.48 615.7V559.7H2744.43V507.2H2773.48V462.05H2835.78V507.2H2889.33V559.7H2835.78V610.8C2835.78 627.95 2841.73 634.25 2858.18 634.25C2874.28 634.25 2885.48 625.15 2885.48 625.15ZM2982.61 688.85C2915.76 688.85 2907.71 641.6 2907.71 641.6L2960.21 627.25C2960.21 627.25 2963.71 646.5 2981.91 646.5C2992.06 646.5 2998.36 641.95 2998.36 633.9C2998.36 624.8 2991.71 620.6 2978.06 617.8L2964.41 614.3C2930.46 606.95 2909.46 588.05 2909.46 560.05C2909.46 525.4 2938.16 503.35 2983.31 503.35C3045.61 503.35 3056.81 543.95 3056.81 543.95L3004.31 561.1C3004.31 561.1 3000.81 545.7 2984.36 545.7C2975.61 545.7 2970.36 549.55 2970.36 556.55C2970.36 564.95 2977.71 568.8 2992.41 572.3L3008.16 576.15C3040.01 583.5 3060.66 602.75 3060.66 630.05C3060.66 666.1 3030.21 688.85 2982.61 688.85Z" fill="#10C1F9"/>
</svg>
